<svg width="14" height="14" viewBox="0 0 14 14" fill="none" xmlns="http://www.w3.org/2000/svg">
<path d="M7.00002 13.2709C3.54085 13.2709 0.729187 10.4592 0.729187 7.00008C0.729187 3.54091 3.54085 0.729248 7.00002 0.729248C10.4592 0.729248 13.2709 3.54091 13.2709 7.00008C13.2709 10.4592 10.4592 13.2709 7.00002 13.2709ZM7.00002 1.60425C4.02502 1.60425 1.60419 4.02508 1.60419 7.00008C1.60419 9.97508 4.02502 12.3959 7.00002 12.3959C9.97502 12.3959 12.3959 9.97508 12.3959 7.00008C12.3959 4.02508 9.97502 1.60425 7.00002 1.60425Z" fill="#6E717D"/>
<path d="M9.04169 7.4375H5.54169C5.30252 7.4375 5.10419 7.23917 5.10419 7C5.10419 6.76083 5.30252 6.5625 5.54169 6.5625H9.04169C9.28085 6.5625 9.47919 6.76083 9.47919 7C9.47919 7.23917 9.28085 7.4375 9.04169 7.4375Z" fill="#6E717D"/>
<path d="M6.70832 9.18751C6.59749 9.18751 6.48665 9.14667 6.39915 9.05917L4.64915 7.30917C4.47999 7.14001 4.47999 6.86001 4.64915 6.69084L6.39915 4.94084C6.56832 4.77167 6.84832 4.77167 7.01749 4.94084C7.18665 5.11001 7.18665 5.39001 7.01749 5.55917L5.57665 7.00001L7.01749 8.44084C7.18665 8.61001 7.18665 8.89001 7.01749 9.05917C6.92999 9.14667 6.81915 9.18751 6.70832 9.18751Z" fill="#6E717D"/>
</svg>
