<svg width="14" height="15" viewBox="0 0 14 15" fill="none" xmlns="http://www.w3.org/2000/svg">
<path opacity="0.4" d="M6.9825 13.3334C10.2042 13.3334 12.8158 10.7217 12.8158 7.50008C12.8158 4.27842 10.2042 1.66675 6.9825 1.66675C3.76084 1.66675 1.14917 4.27842 1.14917 7.50008C1.14917 10.7217 3.76084 13.3334 6.9825 13.3334Z" fill="white"/>
<path d="M8.73249 6.46749L7.04082 5.49332C6.62082 5.24832 6.11332 5.24832 5.69333 5.49332C5.27333 5.73832 5.02249 6.16999 5.02249 6.65999V8.61415C5.02249 9.09832 5.27333 9.53582 5.69333 9.78082C5.90333 9.90332 6.13666 9.96165 6.36416 9.96165C6.59749 9.96165 6.82499 9.90332 7.03499 9.78082L8.72666 8.80665C9.14666 8.56165 9.39749 8.12999 9.39749 7.63999C9.40916 7.14999 9.15832 6.71249 8.73249 6.46749Z" fill="white"/>
</svg>
