<svg width="14" height="15" viewBox="0 0 14 15" fill="none" xmlns="http://www.w3.org/2000/svg">
<path d="M6.99999 1.66675C3.78582 1.66675 1.16666 4.28591 1.16666 7.50008C1.16666 10.7142 3.78582 13.3334 6.99999 13.3334C10.2142 13.3334 12.8333 10.7142 12.8333 7.50008C12.8333 4.28591 10.2142 1.66675 6.99999 1.66675ZM6.56249 5.16675C6.56249 4.92758 6.76082 4.72925 6.99999 4.72925C7.23916 4.72925 7.43749 4.92758 7.43749 5.16675V8.08341C7.43749 8.32258 7.23916 8.52091 6.99999 8.52091C6.76082 8.52091 6.56249 8.32258 6.56249 8.08341V5.16675ZM7.53666 10.0551C7.50749 10.1309 7.46666 10.1892 7.41416 10.2476C7.35582 10.3001 7.29166 10.3409 7.22166 10.3701C7.15166 10.3992 7.07582 10.4167 6.99999 10.4167C6.92416 10.4167 6.84832 10.3992 6.77832 10.3701C6.70832 10.3409 6.64416 10.3001 6.58582 10.2476C6.53332 10.1892 6.49249 10.1309 6.46332 10.0551C6.43416 9.98508 6.41666 9.90925 6.41666 9.83341C6.41666 9.75758 6.43416 9.68175 6.46332 9.61175C6.49249 9.54175 6.53332 9.47758 6.58582 9.41925C6.64416 9.36675 6.70832 9.32591 6.77832 9.29675C6.91832 9.23841 7.08166 9.23841 7.22166 9.29675C7.29166 9.32591 7.35582 9.36675 7.41416 9.41925C7.46666 9.47758 7.50749 9.54175 7.53666 9.61175C7.56582 9.68175 7.58332 9.75758 7.58332 9.83341C7.58332 9.90925 7.56582 9.98508 7.53666 10.0551Z" fill="white"/>
</svg>
